<svg xmlns="http://www.w3.org/2000/svg" xmlns:xlink="http://www.w3.org/1999/xlink" width="18" height="18" viewBox="0 0 18 18">
  <defs>
    <clipPath id="clip-path">
      <rect id="Rectangle_54270" data-name="Rectangle 54270" width="8" height="8" transform="translate(0 0)"/>
    </clipPath>
  </defs>
  <g id="Group_174512" data-name="Group 174512" transform="translate(-918 -308)">
    <g id="elipse" transform="translate(918 308)" fill="#fff" stroke="rgba(0,0,0,0.1)" stroke-width="1">
      <rect width="18" height="18" rx="9" stroke="none"/>
      <rect x="0.5" y="0.5" width="17" height="17" rx="8.5" fill="none"/>
    </g>
    <rect id="elipse-2" data-name="elipse" width="12" height="12" rx="6" transform="translate(920.999 311)" fill="rgba(0,0,0,0.05)"/>
    <g id="Mask_Group_95671" data-name="Mask Group 95671" transform="translate(922.999 313.001)" clip-path="url(#clip-path)">
      <g id="Check" transform="translate(1.444 1.667)">
        <rect id="Rectangle_54269" data-name="Rectangle 54269" width="4.667" height="4.667" transform="translate(0.222)" fill="none"/>
        <path id="Path_172359" data-name="Path 172359" d="M12374.655-12945.83l-1.234-1.328a.613.613,0,0,1-.17-.434.6.6,0,0,1,.17-.433l.01-.011.009-.007a.671.671,0,0,1,.44-.175.584.584,0,0,1,.431.192v0l.772.866,2.264-2.4a.547.547,0,0,1,.423-.19.607.607,0,0,1,.424.193.6.6,0,0,1,.166.447.6.6,0,0,1-.212.425l-2.645,2.854a.542.542,0,0,1-.423.192A.549.549,0,0,1,12374.655-12945.83Z" transform="translate(-12373.251 12950.026)"/>
      </g>
    </g>
  </g>
</svg>
