<svg id="Layer_1" data-name="Layer 1" xmlns="http://www.w3.org/2000/svg" width="30" height="30" viewBox="0 0 30 30">
  <rect id="Rectangle_53688" data-name="Rectangle 53688" width="30" height="30" fill="none"/>
  <g id="Layer_2" data-name="Layer 2" transform="translate(2 2)">
    <g id="Layer_1-2" data-name="Layer 1">
      <path id="Path_171943" data-name="Path 171943" d="M12.8,1.52a11.3,11.3,0,1,0,11.3,11.3A11.3,11.3,0,0,0,12.8,1.52ZM17,15.978a.746.746,0,0,1,0,1.04.735.735,0,0,1-.52.215.7.7,0,0,1-.52-.215L12.8,13.864,9.65,17.018a.7.7,0,0,1-.52.215.735.735,0,0,1-.52-.215.746.746,0,0,1,0-1.04l3.154-3.154L8.61,9.682a.746.746,0,0,1,0-1.04.723.723,0,0,1,1.04,0L12.8,11.784l3.154-3.143a.723.723,0,0,1,1.04,0,.746.746,0,0,1,0,1.04l-3.154,3.143Z" transform="translate(0.196 0.198)" fill="#fff"/>
      <rect id="Rectangle_53685" data-name="Rectangle 53685" width="26" height="26" fill="none"/>
    </g>
  </g>
</svg>
