<svg xmlns="http://www.w3.org/2000/svg" width="24" height="24" viewBox="0 0 24 24">
  <g id="Layer_1" data-name="Layer 1" opacity="0.2">
    <rect id="Rectangle_53688" data-name="Rectangle 53688" width="24" height="24" fill="none"/>
    <g id="Layer_2" data-name="Layer 2" transform="translate(2 2)">
      <g id="Layer_1-2" data-name="Layer 1">
        <path id="Path_171943" data-name="Path 171943" d="M10.2,1.52a8.7,8.7,0,1,0,8.7,8.7,8.7,8.7,0,0,0-8.7-8.7Zm3.226,11.122a.574.574,0,0,1,0,.8.565.565,0,0,1-.4.165.539.539,0,0,1-.4-.165L10.2,11.016,7.77,13.442a.539.539,0,0,1-.4.165.565.565,0,0,1-.4-.165.574.574,0,0,1,0-.8L9.4,10.216,6.97,7.8a.574.574,0,0,1,0-.8.557.557,0,0,1,.8,0L10.2,9.416,12.622,7a.557.557,0,0,1,.8,0,.574.574,0,0,1,0,.8L11,10.216Z" transform="translate(-0.196 -0.198)"/>
        <rect id="Rectangle_53685" data-name="Rectangle 53685" width="20" height="20" fill="none"/>
      </g>
    </g>
  </g>
</svg>
